<?xml version="1.0" encoding="UTF-8" standalone="no"?>
<!DOCTYPE svg PUBLIC "-//W3C//DTD SVG 1.1//EN"
 "http://www.w3.org/Graphics/SVG/1.1/DTD/svg11.dtd">
<!-- Generated by graphviz version 2.41.0 (0)
 -->
<!-- Title: interpreter.y Pages: 1 -->
<svg width="1937pt" height="1095pt"
 viewBox="0.00 0.00 1937.00 1095.00" xmlns="http://www.w3.org/2000/svg" xmlns:xlink="http://www.w3.org/1999/xlink">
<g id="graph0" class="graph" transform="scale(1 1) rotate(0) translate(4 1091)">
<title>interpreter.y</title>
<polygon fill="white" stroke="transparent" points="-4,4 -4,-1091 1933,-1091 1933,4 -4,4"/>
<!-- 0 -->
<g id="node1" class="node">
<title>0</title>
<polygon fill="none" stroke="black" points="817,-1087 578,-1087 578,-1033 817,-1033 817,-1087"/>
<text text-anchor="middle" x="697.5" y="-1071.8" font-family="Courier,monospace" font-size="14.00">Estado 0</text>
<text text-anchor="start" x="586" y="-1040.8" font-family="Courier,monospace" font-size="14.00"> &#160;0 $accept: • program $end</text>
</g>
<!-- 1 -->
<g id="node2" class="node">
<title>1</title>
<polygon fill="none" stroke="black" points="428,-959.5 189,-959.5 189,-905.5 428,-905.5 428,-959.5"/>
<text text-anchor="middle" x="308.5" y="-944.3" font-family="Courier,monospace" font-size="14.00">Estado 1</text>
<text text-anchor="start" x="197" y="-913.3" font-family="Courier,monospace" font-size="14.00"> &#160;0 $accept: program • $end</text>
</g>
<!-- 0&#45;&gt;1 -->
<g id="edge1" class="edge">
<title>0&#45;&gt;1</title>
<path fill="none" stroke="black" stroke-dasharray="5,2" d="M616.9,-1033C553.37,-1012.5 464.82,-983.93 398.89,-962.66"/>
<polygon fill="black" stroke="black" points="399.92,-959.32 389.33,-959.58 397.77,-965.98 399.92,-959.32"/>
<text text-anchor="middle" x="590.5" y="-1003.8" font-family="Courier,monospace" font-size="14.00">program</text>
</g>
<!-- 2 -->
<g id="node3" class="node">
<title>2</title>
<polygon fill="none" stroke="black" points="850,-982 545,-982 545,-883 850,-883 850,-982"/>
<text text-anchor="middle" x="697.5" y="-966.8" font-family="Courier,monospace" font-size="14.00">Estado 2</text>
<text text-anchor="start" x="553" y="-935.8" font-family="Courier,monospace" font-size="14.00"> &#160;1 program: stmtlist •</text>
<text text-anchor="start" x="553" y="-920.8" font-family="Courier,monospace" font-size="14.00"> &#160;3 stmtlist: stmtlist • &#39;\n&#39;</text>
<text text-anchor="start" x="553" y="-905.8" font-family="Courier,monospace" font-size="14.00"> &#160;4 &#160;&#160;&#160;&#160;&#160;&#160;&#160;&#160;| stmtlist • exp &#39;\n&#39;</text>
<text text-anchor="start" x="553" y="-890.8" font-family="Courier,monospace" font-size="14.00"> &#160;5 &#160;&#160;&#160;&#160;&#160;&#160;&#160;&#160;| stmtlist • error &#39;\n&#39;</text>
</g>
<!-- 0&#45;&gt;2 -->
<g id="edge2" class="edge">
<title>0&#45;&gt;2</title>
<path fill="none" stroke="black" stroke-dasharray="5,2" d="M697.5,-1033C697.5,-1021.15 697.5,-1006.61 697.5,-992.34"/>
<polygon fill="black" stroke="black" points="701,-992.04 697.5,-982.04 694,-992.04 701,-992.04"/>
<text text-anchor="middle" x="731" y="-1003.8" font-family="Courier,monospace" font-size="14.00">stmtlist</text>
</g>
<!-- 0R2 -->
<g id="node4" class="node">
<title>0R2</title>
<polygon fill="#b2df8a" stroke="black" points="898.5,-950.5 868.33,-932.5 898.5,-914.5 928.67,-932.5 898.5,-950.5"/>
<text text-anchor="middle" x="898.5" y="-928.8" font-family="Courier,monospace" font-size="14.00">R2</text>
</g>
<!-- 0&#45;&gt;0R2 -->
<g id="edge3" class="edge">
<title>0&#45;&gt;0R2</title>
<path fill="none" stroke="black" d="M768.67,-1032.92C798.15,-1020.16 831.65,-1002.99 858.5,-982 868.4,-974.26 877.49,-963.66 884.5,-954.35"/>
<polygon fill="black" stroke="black" points="887.54,-956.11 890.53,-945.95 881.85,-952.03 887.54,-956.11"/>
</g>
<!-- 3 -->
<g id="node5" class="node">
<title>3</title>
<polygon fill="none" stroke="black" points="239,-832 0,-832 0,-778 239,-778 239,-832"/>
<text text-anchor="middle" x="119.5" y="-816.8" font-family="Courier,monospace" font-size="14.00">Estado 3</text>
<text text-anchor="start" x="8" y="-785.8" font-family="Courier,monospace" font-size="14.00"> &#160;0 $accept: program $end •</text>
</g>
<!-- 1&#45;&gt;3 -->
<g id="edge4" class="edge">
<title>1&#45;&gt;3</title>
<path fill="none" stroke="black" d="M269.34,-905.5C239.79,-885.87 199.09,-858.85 167.57,-837.92"/>
<polygon fill="black" stroke="black" points="169.2,-834.8 158.94,-832.19 165.33,-840.63 169.2,-834.8"/>
<text text-anchor="middle" x="225.5" y="-853.8" font-family="Courier,monospace" font-size="14.00">$end</text>
</g>
<!-- 4 -->
<g id="node6" class="node">
<title>4</title>
<polygon fill="none" stroke="black" points="1665,-832 1360,-832 1360,-778 1665,-778 1665,-832"/>
<text text-anchor="middle" x="1512.5" y="-816.8" font-family="Courier,monospace" font-size="14.00">Estado 4</text>
<text text-anchor="start" x="1368" y="-785.8" font-family="Courier,monospace" font-size="14.00"> &#160;5 stmtlist: stmtlist error • &#39;\n&#39;</text>
</g>
<!-- 2&#45;&gt;4 -->
<g id="edge5" class="edge">
<title>2&#45;&gt;4</title>
<path fill="none" stroke="black" stroke-dasharray="1,5" d="M850.38,-884.96C853.44,-884.28 856.48,-883.62 859.5,-883 950.04,-864.26 1187.44,-838.41 1349.6,-821.94"/>
<polygon fill="black" stroke="black" points="1350.09,-825.41 1359.69,-820.92 1349.39,-818.45 1350.09,-825.41"/>
</g>
<!-- 5 -->
<g id="node7" class="node">
<title>5</title>
<polygon fill="none" stroke="black" points="623,-157 466,-157 466,-103 623,-103 623,-157"/>
<text text-anchor="middle" x="544.5" y="-141.8" font-family="Courier,monospace" font-size="14.00">Estado 5</text>
<text text-anchor="start" x="474" y="-110.8" font-family="Courier,monospace" font-size="14.00"> &#160;6 exp: NUMBER •</text>
</g>
<!-- 2&#45;&gt;5 -->
<g id="edge6" class="edge">
<title>2&#45;&gt;5</title>
<path fill="none" stroke="black" d="M544.96,-901.62C450.69,-881.63 339.72,-854.89 296.5,-832 281.2,-823.9 267.5,-823.31 267.5,-806 267.5,-806 267.5,-806 267.5,-264 267.5,-179.08 374.61,-148.34 455.62,-137.24"/>
<polygon fill="black" stroke="black" points="456.39,-140.67 465.86,-135.92 455.5,-133.73 456.39,-140.67"/>
<text text-anchor="middle" x="292.5" y="-531.3" font-family="Courier,monospace" font-size="14.00">NUMBER</text>
</g>
<!-- 6 -->
<g id="node8" class="node">
<title>6</title>
<polygon fill="none" stroke="black" points="561.5,-832 305.5,-832 305.5,-778 561.5,-778 561.5,-832"/>
<text text-anchor="middle" x="433.5" y="-816.8" font-family="Courier,monospace" font-size="14.00">Estado 6</text>
<text text-anchor="start" x="313.5" y="-785.8" font-family="Courier,monospace" font-size="14.00"> &#160;3 stmtlist: stmtlist &#39;\n&#39; •</text>
</g>
<!-- 2&#45;&gt;6 -->
<g id="edge7" class="edge">
<title>2&#45;&gt;6</title>
<path fill="none" stroke="black" d="M595.43,-882.98C562.57,-867.36 527.09,-850.49 497.75,-836.54"/>
<polygon fill="black" stroke="black" points="498.98,-833.25 488.45,-832.12 495.97,-839.57 498.98,-833.25"/>
<text text-anchor="middle" x="575.5" y="-853.8" font-family="Courier,monospace" font-size="14.00">&#39;\n&#39;</text>
</g>
<!-- 7 -->
<g id="node9" class="node">
<title>7</title>
<polygon fill="none" stroke="black" points="796.5,-832 598.5,-832 598.5,-778 796.5,-778 796.5,-832"/>
<text text-anchor="middle" x="697.5" y="-816.8" font-family="Courier,monospace" font-size="14.00">Estado 7</text>
<text text-anchor="start" x="606.5" y="-785.8" font-family="Courier,monospace" font-size="14.00"> 11 exp: &#39;(&#39; • exp &#39;)&#39;</text>
</g>
<!-- 2&#45;&gt;7 -->
<g id="edge8" class="edge">
<title>2&#45;&gt;7</title>
<path fill="none" stroke="black" d="M697.5,-882.98C697.5,-869.51 697.5,-855.11 697.5,-842.46"/>
<polygon fill="black" stroke="black" points="701,-842.3 697.5,-832.3 694,-842.3 701,-842.3"/>
<text text-anchor="middle" x="710" y="-853.8" font-family="Courier,monospace" font-size="14.00">&#39;(&#39;</text>
</g>
<!-- 8 -->
<g id="node10" class="node">
<title>8</title>
<polygon fill="none" stroke="black" points="1267,-727 978,-727 978,-613 1267,-613 1267,-727"/>
<text text-anchor="middle" x="1122.5" y="-711.8" font-family="Courier,monospace" font-size="14.00">Estado 8</text>
<text text-anchor="start" x="986" y="-680.8" font-family="Courier,monospace" font-size="14.00"> &#160;4 stmtlist: stmtlist exp • &#39;\n&#39;</text>
<text text-anchor="start" x="986" y="-665.8" font-family="Courier,monospace" font-size="14.00"> &#160;7 exp: exp • &#39;+&#39; exp</text>
<text text-anchor="start" x="986" y="-650.8" font-family="Courier,monospace" font-size="14.00"> &#160;8 &#160;&#160;&#160;| exp • &#39;&#45;&#39; exp</text>
<text text-anchor="start" x="986" y="-635.8" font-family="Courier,monospace" font-size="14.00"> &#160;9 &#160;&#160;&#160;| exp • &#39;*&#39; exp</text>
<text text-anchor="start" x="986" y="-620.8" font-family="Courier,monospace" font-size="14.00"> 10 &#160;&#160;&#160;| exp • &#39;/&#39; exp</text>
</g>
<!-- 2&#45;&gt;8 -->
<g id="edge9" class="edge">
<title>2&#45;&gt;8</title>
<path fill="none" stroke="black" stroke-dasharray="5,2" d="M780.62,-882.98C803.62,-867.92 827.9,-850.41 848.5,-832 871.79,-811.18 868.75,-797.07 893.5,-778 916.37,-760.37 942.62,-744.74 969,-731.23"/>
<polygon fill="black" stroke="black" points="970.58,-734.35 977.94,-726.74 967.44,-728.1 970.58,-734.35"/>
<text text-anchor="middle" x="906" y="-801.3" font-family="Courier,monospace" font-size="14.00">exp</text>
</g>
<!-- 2R1 -->
<g id="node11" class="node">
<title>2R1</title>
<polygon fill="#b2df8a" stroke="black" points="957.5,-823 927.33,-805 957.5,-787 987.67,-805 957.5,-823"/>
<text text-anchor="middle" x="957.5" y="-801.3" font-family="Courier,monospace" font-size="14.00">R1</text>
</g>
<!-- 2&#45;&gt;2R1 -->
<g id="edge10" class="edge">
<title>2&#45;&gt;2R1</title>
<path fill="none" stroke="black" d="M850.2,-885.81C870.92,-878.41 888.49,-871.17 898.5,-865 915.29,-854.65 930.91,-838.62 941.86,-825.87"/>
<polygon fill="black" stroke="black" points="944.64,-828 948.34,-818.07 939.26,-823.53 944.64,-828"/>
<text text-anchor="middle" x="942.5" y="-853.8" font-family="Courier,monospace" font-size="14.00">[$end]</text>
</g>
<!-- 3R0 -->
<g id="node12" class="node">
<title>3R0</title>
<polygon fill="#a6cee3" stroke="black" points="119.5,-688 81.63,-670 119.5,-652 157.37,-670 119.5,-688"/>
<text text-anchor="middle" x="119.5" y="-666.3" font-family="Courier,monospace" font-size="14.00">Acc</text>
</g>
<!-- 3&#45;&gt;3R0 -->
<g id="edge11" class="edge">
<title>3&#45;&gt;3R0</title>
<path fill="none" stroke="black" d="M119.5,-777.72C119.5,-754.85 119.5,-721.81 119.5,-698.56"/>
<polygon fill="black" stroke="black" points="123,-698.33 119.5,-688.33 116,-698.33 123,-698.33"/>
</g>
<!-- 9 -->
<g id="node13" class="node">
<title>9</title>
<polygon fill="none" stroke="black" points="1929,-697 1624,-697 1624,-643 1929,-643 1929,-697"/>
<text text-anchor="middle" x="1776.5" y="-681.8" font-family="Courier,monospace" font-size="14.00">Estado 9</text>
<text text-anchor="start" x="1632" y="-650.8" font-family="Courier,monospace" font-size="14.00"> &#160;5 stmtlist: stmtlist error &#39;\n&#39; •</text>
</g>
<!-- 4&#45;&gt;9 -->
<g id="edge12" class="edge">
<title>4&#45;&gt;9</title>
<path fill="none" stroke="black" d="M1571.51,-777.96C1584.12,-772.19 1597.31,-766.01 1609.5,-760 1646.94,-741.55 1688.36,-719.49 1720.57,-701.95"/>
<polygon fill="black" stroke="black" points="1722.31,-704.99 1729.41,-697.13 1718.95,-698.85 1722.31,-704.99"/>
<text text-anchor="middle" x="1653.5" y="-748.8" font-family="Courier,monospace" font-size="14.00">&#39;\n&#39;</text>
</g>
<!-- 5R6 -->
<g id="node14" class="node">
<title>5R6</title>
<polygon fill="#b2df8a" stroke="black" points="544.5,-36 514.33,-18 544.5,0 574.67,-18 544.5,-36"/>
<text text-anchor="middle" x="544.5" y="-14.3" font-family="Courier,monospace" font-size="14.00">R6</text>
</g>
<!-- 5&#45;&gt;5R6 -->
<g id="edge13" class="edge">
<title>5&#45;&gt;5R6</title>
<path fill="none" stroke="black" d="M544.5,-102.93C544.5,-85.89 544.5,-63.66 544.5,-46.36"/>
<polygon fill="black" stroke="black" points="548,-46.31 544.5,-36.31 541,-46.31 548,-46.31"/>
</g>
<!-- 6R3 -->
<g id="node15" class="node">
<title>6R3</title>
<polygon fill="#b2df8a" stroke="black" points="325.5,-688 295.33,-670 325.5,-652 355.67,-670 325.5,-688"/>
<text text-anchor="middle" x="325.5" y="-666.3" font-family="Courier,monospace" font-size="14.00">R3</text>
</g>
<!-- 6&#45;&gt;6R3 -->
<g id="edge14" class="edge">
<title>6&#45;&gt;6R3</title>
<path fill="none" stroke="black" d="M389.03,-777.88C381.98,-772.53 375.15,-766.52 369.5,-760 352.86,-740.78 340.78,-714.17 333.54,-695.06"/>
<polygon fill="black" stroke="black" points="336.8,-693.78 330.11,-685.57 330.22,-696.16 336.8,-693.78"/>
</g>
<!-- 7&#45;&gt;5 -->
<g id="edge15" class="edge">
<title>7&#45;&gt;5</title>
<path fill="none" stroke="black" d="M598.43,-779.95C529.29,-762.31 447.34,-739.38 435.5,-727 358.45,-646.46 375.5,-594.96 375.5,-483.5 375.5,-483.5 375.5,-483.5 375.5,-264 375.5,-216.07 417.99,-182.77 460.37,-161.47"/>
<polygon fill="black" stroke="black" points="461.91,-164.61 469.39,-157.11 458.86,-158.31 461.91,-164.61"/>
<text text-anchor="middle" x="400.5" y="-478.8" font-family="Courier,monospace" font-size="14.00">NUMBER</text>
</g>
<!-- 7&#45;&gt;7 -->
<g id="edge16" class="edge">
<title>7&#45;&gt;7</title>
<path fill="none" stroke="black" d="M796.51,-813.2C807.44,-811.64 814.5,-808.91 814.5,-805 814.5,-802.5 811.6,-800.47 806.65,-798.93"/>
<polygon fill="black" stroke="black" points="807.02,-795.43 796.51,-796.8 805.58,-802.28 807.02,-795.43"/>
<text text-anchor="middle" x="827" y="-801.3" font-family="Courier,monospace" font-size="14.00">&#39;(&#39;</text>
</g>
<!-- 10 -->
<g id="node16" class="node">
<title>10</title>
<polygon fill="none" stroke="black" points="816.5,-727 618.5,-727 618.5,-613 816.5,-613 816.5,-727"/>
<text text-anchor="middle" x="717.5" y="-711.8" font-family="Courier,monospace" font-size="14.00">Estado 10</text>
<text text-anchor="start" x="626.5" y="-680.8" font-family="Courier,monospace" font-size="14.00"> &#160;7 exp: exp • &#39;+&#39; exp</text>
<text text-anchor="start" x="626.5" y="-665.8" font-family="Courier,monospace" font-size="14.00"> &#160;8 &#160;&#160;&#160;| exp • &#39;&#45;&#39; exp</text>
<text text-anchor="start" x="626.5" y="-650.8" font-family="Courier,monospace" font-size="14.00"> &#160;9 &#160;&#160;&#160;| exp • &#39;*&#39; exp</text>
<text text-anchor="start" x="626.5" y="-635.8" font-family="Courier,monospace" font-size="14.00"> 10 &#160;&#160;&#160;| exp • &#39;/&#39; exp</text>
<text text-anchor="start" x="626.5" y="-620.8" font-family="Courier,monospace" font-size="14.00"> 11 &#160;&#160;&#160;| &#39;(&#39; exp • &#39;)&#39;</text>
</g>
<!-- 7&#45;&gt;10 -->
<g id="edge17" class="edge">
<title>7&#45;&gt;10</title>
<path fill="none" stroke="black" stroke-dasharray="5,2" d="M701.45,-777.72C703.22,-765.98 705.39,-751.54 707.55,-737.14"/>
<polygon fill="black" stroke="black" points="711.02,-737.61 709.05,-727.2 704.1,-736.57 711.02,-737.61"/>
<text text-anchor="middle" x="719" y="-748.8" font-family="Courier,monospace" font-size="14.00">exp</text>
</g>
<!-- 11 -->
<g id="node17" class="node">
<title>11</title>
<polygon fill="none" stroke="black" points="662.5,-562 464.5,-562 464.5,-508 662.5,-508 662.5,-562"/>
<text text-anchor="middle" x="563.5" y="-546.8" font-family="Courier,monospace" font-size="14.00">Estado 11</text>
<text text-anchor="start" x="472.5" y="-515.8" font-family="Courier,monospace" font-size="14.00"> &#160;7 exp: exp &#39;+&#39; • exp</text>
</g>
<!-- 8&#45;&gt;11 -->
<g id="edge18" class="edge">
<title>8&#45;&gt;11</title>
<path fill="none" stroke="black" d="M977.8,-632.38C948.35,-625.49 917.5,-618.67 888.5,-613 836.44,-602.82 819.65,-614.96 770.5,-595 759.87,-590.68 759.94,-584.74 749.5,-580 725.52,-569.11 698.54,-560.75 672.71,-554.38"/>
<polygon fill="black" stroke="black" points="673.42,-550.95 662.88,-552.04 671.8,-557.76 673.42,-550.95"/>
<text text-anchor="middle" x="783" y="-583.8" font-family="Courier,monospace" font-size="14.00">&#39;+&#39;</text>
</g>
<!-- 12 -->
<g id="node18" class="node">
<title>12</title>
<polygon fill="none" stroke="black" points="1170.5,-562 972.5,-562 972.5,-508 1170.5,-508 1170.5,-562"/>
<text text-anchor="middle" x="1071.5" y="-546.8" font-family="Courier,monospace" font-size="14.00">Estado 12</text>
<text text-anchor="start" x="980.5" y="-515.8" font-family="Courier,monospace" font-size="14.00"> &#160;8 exp: exp &#39;&#45;&#39; • exp</text>
</g>
<!-- 8&#45;&gt;12 -->
<g id="edge19" class="edge">
<title>8&#45;&gt;12</title>
<path fill="none" stroke="black" d="M1101.02,-612.98C1095.69,-599.09 1090.12,-584.57 1085.28,-571.93"/>
<polygon fill="black" stroke="black" points="1088.41,-570.34 1081.57,-562.25 1081.88,-572.84 1088.41,-570.34"/>
<text text-anchor="middle" x="1106" y="-583.8" font-family="Courier,monospace" font-size="14.00">&#39;&#45;&#39;</text>
</g>
<!-- 13 -->
<g id="node19" class="node">
<title>13</title>
<polygon fill="none" stroke="black" points="841.5,-292 643.5,-292 643.5,-238 841.5,-238 841.5,-292"/>
<text text-anchor="middle" x="742.5" y="-276.8" font-family="Courier,monospace" font-size="14.00">Estado 13</text>
<text text-anchor="start" x="651.5" y="-245.8" font-family="Courier,monospace" font-size="14.00"> &#160;9 exp: exp &#39;*&#39; • exp</text>
</g>
<!-- 8&#45;&gt;13 -->
<g id="edge20" class="edge">
<title>8&#45;&gt;13</title>
<path fill="none" stroke="black" d="M1026.93,-612.94C1004.89,-597.84 982.4,-580.51 963.5,-562 942.53,-541.47 944.97,-529.95 925.5,-508 917.56,-499.05 911.8,-500.16 905.5,-490 861.35,-418.79 909.81,-368.15 849.5,-310 844.64,-305.32 839.22,-301.1 833.46,-297.32"/>
<polygon fill="black" stroke="black" points="835.17,-294.27 824.8,-292.08 831.54,-300.25 835.17,-294.27"/>
<text text-anchor="middle" x="918" y="-478.8" font-family="Courier,monospace" font-size="14.00">&#39;*&#39;</text>
</g>
<!-- 14 -->
<g id="node20" class="node">
<title>14</title>
<polygon fill="none" stroke="black" points="1297.5,-292 1099.5,-292 1099.5,-238 1297.5,-238 1297.5,-292"/>
<text text-anchor="middle" x="1198.5" y="-276.8" font-family="Courier,monospace" font-size="14.00">Estado 14</text>
<text text-anchor="start" x="1107.5" y="-245.8" font-family="Courier,monospace" font-size="14.00"> 10 exp: exp &#39;/&#39; • exp</text>
</g>
<!-- 8&#45;&gt;14 -->
<g id="edge21" class="edge">
<title>8&#45;&gt;14</title>
<path fill="none" stroke="black" d="M1179.16,-612.95C1191.93,-597.55 1204.16,-580.07 1212.5,-562 1252.35,-475.62 1227.33,-359.61 1210.36,-301.83"/>
<polygon fill="black" stroke="black" points="1213.65,-300.63 1207.41,-292.07 1206.95,-302.65 1213.65,-300.63"/>
<text text-anchor="middle" x="1245" y="-478.8" font-family="Courier,monospace" font-size="14.00">&#39;/&#39;</text>
</g>
<!-- 15 -->
<g id="node21" class="node">
<title>15</title>
<polygon fill="none" stroke="black" points="1559,-562 1270,-562 1270,-508 1559,-508 1559,-562"/>
<text text-anchor="middle" x="1414.5" y="-546.8" font-family="Courier,monospace" font-size="14.00">Estado 15</text>
<text text-anchor="start" x="1278" y="-515.8" font-family="Courier,monospace" font-size="14.00"> &#160;4 stmtlist: stmtlist exp &#39;\n&#39; •</text>
</g>
<!-- 8&#45;&gt;15 -->
<g id="edge22" class="edge">
<title>8&#45;&gt;15</title>
<path fill="none" stroke="black" d="M1245.49,-612.98C1280.66,-596.96 1317.66,-580.11 1348.04,-566.27"/>
<polygon fill="black" stroke="black" points="1349.6,-569.41 1357.25,-562.08 1346.7,-563.04 1349.6,-569.41"/>
<text text-anchor="middle" x="1328.5" y="-583.8" font-family="Courier,monospace" font-size="14.00">&#39;\n&#39;</text>
</g>
<!-- 9R5 -->
<g id="node22" class="node">
<title>9R5</title>
<polygon fill="#b2df8a" stroke="black" points="1776.5,-553 1746.33,-535 1776.5,-517 1806.67,-535 1776.5,-553"/>
<text text-anchor="middle" x="1776.5" y="-531.3" font-family="Courier,monospace" font-size="14.00">R5</text>
</g>
<!-- 9&#45;&gt;9R5 -->
<g id="edge23" class="edge">
<title>9&#45;&gt;9R5</title>
<path fill="none" stroke="black" d="M1776.5,-642.72C1776.5,-619.85 1776.5,-586.81 1776.5,-563.56"/>
<polygon fill="black" stroke="black" points="1780,-563.33 1776.5,-553.33 1773,-563.33 1780,-563.33"/>
</g>
<!-- 10&#45;&gt;11 -->
<g id="edge24" class="edge">
<title>10&#45;&gt;11</title>
<path fill="none" stroke="black" d="M652.64,-612.98C635.28,-597.99 617.07,-582.27 601.67,-568.97"/>
<polygon fill="black" stroke="black" points="603.75,-566.14 593.9,-562.25 599.18,-571.44 603.75,-566.14"/>
<text text-anchor="middle" x="644" y="-583.8" font-family="Courier,monospace" font-size="14.00">&#39;+&#39;</text>
</g>
<!-- 10&#45;&gt;12 -->
<g id="edge25" class="edge">
<title>10&#45;&gt;12</title>
<path fill="none" stroke="black" d="M776.97,-612.88C793.9,-598 810.46,-584.74 820.5,-580 863.31,-559.78 878.86,-570.15 925.5,-562 937.41,-559.92 949.86,-557.73 962.25,-555.53"/>
<polygon fill="black" stroke="black" points="962.93,-558.97 972.17,-553.78 961.71,-552.08 962.93,-558.97"/>
<text text-anchor="middle" x="833" y="-583.8" font-family="Courier,monospace" font-size="14.00">&#39;&#45;&#39;</text>
</g>
<!-- 10&#45;&gt;13 -->
<g id="edge26" class="edge">
<title>10&#45;&gt;13</title>
<path fill="none" stroke="black" d="M712.52,-612.96C711.27,-596.55 710.12,-578.57 709.5,-562 708.6,-538.02 707.87,-531.94 709.5,-508 714.49,-434.45 727.92,-349.19 736.03,-302.04"/>
<polygon fill="black" stroke="black" points="739.51,-302.47 737.77,-292.02 732.61,-301.28 739.51,-302.47"/>
<text text-anchor="middle" x="725" y="-478.8" font-family="Courier,monospace" font-size="14.00">&#39;*&#39;</text>
</g>
<!-- 10&#45;&gt;14 -->
<g id="edge27" class="edge">
<title>10&#45;&gt;14</title>
<path fill="none" stroke="black" d="M816.52,-614.71C818.18,-614.11 819.84,-613.54 821.5,-613 897.84,-587.9 1124.92,-620.98 1179.5,-562 1196.75,-543.36 1198.7,-377.64 1198.68,-302.61"/>
<polygon fill="black" stroke="black" points="1202.18,-302.23 1198.67,-292.23 1195.18,-302.24 1202.18,-302.23"/>
<text text-anchor="middle" x="1206" y="-478.8" font-family="Courier,monospace" font-size="14.00">&#39;/&#39;</text>
</g>
<!-- 16 -->
<g id="node23" class="node">
<title>16</title>
<polygon fill="none" stroke="black" points="916.5,-562 718.5,-562 718.5,-508 916.5,-508 916.5,-562"/>
<text text-anchor="middle" x="817.5" y="-546.8" font-family="Courier,monospace" font-size="14.00">Estado 16</text>
<text text-anchor="start" x="726.5" y="-515.8" font-family="Courier,monospace" font-size="14.00"> 11 exp: &#39;(&#39; exp &#39;)&#39; •</text>
</g>
<!-- 10&#45;&gt;16 -->
<g id="edge28" class="edge">
<title>10&#45;&gt;16</title>
<path fill="none" stroke="black" d="M713.15,-612.79C714.57,-601.17 717.9,-589.57 724.5,-580 727.33,-575.9 730.65,-572.16 734.31,-568.77"/>
<polygon fill="black" stroke="black" points="736.74,-571.31 742.28,-562.28 732.32,-565.88 736.74,-571.31"/>
<text text-anchor="middle" x="737" y="-583.8" font-family="Courier,monospace" font-size="14.00">&#39;)&#39;</text>
</g>
<!-- 11&#45;&gt;5 -->
<g id="edge29" class="edge">
<title>11&#45;&gt;5</title>
<path fill="none" stroke="black" d="M532.92,-507.98C519.29,-494.37 504.71,-476.49 497.5,-457 460.21,-356.2 503.01,-227.7 528.4,-166.5"/>
<polygon fill="black" stroke="black" points="531.63,-167.84 532.31,-157.27 525.18,-165.11 531.63,-167.84"/>
<text text-anchor="middle" x="512.5" y="-313.8" font-family="Courier,monospace" font-size="14.00">NUMBER</text>
</g>
<!-- 11&#45;&gt;7 -->
<g id="edge30" class="edge">
<title>11&#45;&gt;7</title>
<path fill="none" stroke="black" d="M559.84,-562.25C555.78,-601.19 553.4,-675.24 584.5,-727 595.64,-745.54 613.16,-760.63 631.11,-772.39"/>
<polygon fill="black" stroke="black" points="629.59,-775.56 639.93,-777.89 633.3,-769.63 629.59,-775.56"/>
<text text-anchor="middle" x="597" y="-666.3" font-family="Courier,monospace" font-size="14.00">&#39;(&#39;</text>
</g>
<!-- 17 -->
<g id="node24" class="node">
<title>17</title>
<polygon fill="none" stroke="black" points="704.5,-457 506.5,-457 506.5,-343 704.5,-343 704.5,-457"/>
<text text-anchor="middle" x="605.5" y="-441.8" font-family="Courier,monospace" font-size="14.00">Estado 17</text>
<text text-anchor="start" x="514.5" y="-410.8" font-family="Courier,monospace" font-size="14.00"> &#160;7 exp: exp • &#39;+&#39; exp</text>
<text text-anchor="start" x="514.5" y="-395.8" font-family="Courier,monospace" font-size="14.00"> &#160;7 &#160;&#160;&#160;| exp &#39;+&#39; exp •</text>
<text text-anchor="start" x="514.5" y="-380.8" font-family="Courier,monospace" font-size="14.00"> &#160;8 &#160;&#160;&#160;| exp • &#39;&#45;&#39; exp</text>
<text text-anchor="start" x="514.5" y="-365.8" font-family="Courier,monospace" font-size="14.00"> &#160;9 &#160;&#160;&#160;| exp • &#39;*&#39; exp</text>
<text text-anchor="start" x="514.5" y="-350.8" font-family="Courier,monospace" font-size="14.00"> 10 &#160;&#160;&#160;| exp • &#39;/&#39; exp</text>
</g>
<!-- 11&#45;&gt;17 -->
<g id="edge31" class="edge">
<title>11&#45;&gt;17</title>
<path fill="none" stroke="black" stroke-dasharray="5,2" d="M571.8,-507.72C575.51,-495.98 580.07,-481.54 584.62,-467.14"/>
<polygon fill="black" stroke="black" points="588.08,-467.79 587.75,-457.2 581.4,-465.68 588.08,-467.79"/>
<text text-anchor="middle" x="595" y="-478.8" font-family="Courier,monospace" font-size="14.00">exp</text>
</g>
<!-- 12&#45;&gt;5 -->
<g id="edge32" class="edge">
<title>12&#45;&gt;5</title>
<path fill="none" stroke="black" d="M1020.66,-507.84C1000.23,-495.03 978.11,-477.83 963.5,-457 924.55,-401.47 956.71,-368.57 922.5,-310 899.67,-270.92 888.82,-262.07 850.5,-238 783.21,-195.73 697.06,-167.54 633.33,-150.75"/>
<polygon fill="black" stroke="black" points="633.85,-147.27 623.3,-148.16 632.1,-154.05 633.85,-147.27"/>
<text text-anchor="middle" x="955.5" y="-313.8" font-family="Courier,monospace" font-size="14.00">NUMBER</text>
</g>
<!-- 12&#45;&gt;7 -->
<g id="edge33" class="edge">
<title>12&#45;&gt;7</title>
<path fill="none" stroke="black" d="M1022.84,-562.16C998.49,-576.07 969.05,-594.16 944.5,-613 886.39,-657.59 883.68,-682.51 825.5,-727 803.68,-743.69 777.99,-759.75 755.39,-772.85"/>
<polygon fill="black" stroke="black" points="753.5,-769.89 746.56,-777.9 756.98,-775.97 753.5,-769.89"/>
<text text-anchor="middle" x="957" y="-666.3" font-family="Courier,monospace" font-size="14.00">&#39;(&#39;</text>
</g>
<!-- 18 -->
<g id="node25" class="node">
<title>18</title>
<polygon fill="none" stroke="black" points="1170.5,-457 972.5,-457 972.5,-343 1170.5,-343 1170.5,-457"/>
<text text-anchor="middle" x="1071.5" y="-441.8" font-family="Courier,monospace" font-size="14.00">Estado 18</text>
<text text-anchor="start" x="980.5" y="-410.8" font-family="Courier,monospace" font-size="14.00"> &#160;7 exp: exp • &#39;+&#39; exp</text>
<text text-anchor="start" x="980.5" y="-395.8" font-family="Courier,monospace" font-size="14.00"> &#160;8 &#160;&#160;&#160;| exp • &#39;&#45;&#39; exp</text>
<text text-anchor="start" x="980.5" y="-380.8" font-family="Courier,monospace" font-size="14.00"> &#160;8 &#160;&#160;&#160;| exp &#39;&#45;&#39; exp •</text>
<text text-anchor="start" x="980.5" y="-365.8" font-family="Courier,monospace" font-size="14.00"> &#160;9 &#160;&#160;&#160;| exp • &#39;*&#39; exp</text>
<text text-anchor="start" x="980.5" y="-350.8" font-family="Courier,monospace" font-size="14.00"> 10 &#160;&#160;&#160;| exp • &#39;/&#39; exp</text>
</g>
<!-- 12&#45;&gt;18 -->
<g id="edge34" class="edge">
<title>12&#45;&gt;18</title>
<path fill="none" stroke="black" stroke-dasharray="5,2" d="M1071.5,-507.72C1071.5,-496.09 1071.5,-481.82 1071.5,-467.55"/>
<polygon fill="black" stroke="black" points="1075,-467.2 1071.5,-457.2 1068,-467.2 1075,-467.2"/>
<text text-anchor="middle" x="1084" y="-478.8" font-family="Courier,monospace" font-size="14.00">exp</text>
</g>
<!-- 13&#45;&gt;5 -->
<g id="edge35" class="edge">
<title>13&#45;&gt;5</title>
<path fill="none" stroke="black" d="M703.38,-237.72C671.38,-216.23 626.01,-185.75 591.94,-162.87"/>
<polygon fill="black" stroke="black" points="593.79,-159.89 583.54,-157.22 589.89,-165.7 593.79,-159.89"/>
<text text-anchor="middle" x="698.5" y="-208.8" font-family="Courier,monospace" font-size="14.00">NUMBER</text>
</g>
<!-- 13&#45;&gt;7 -->
<g id="edge36" class="edge">
<title>13&#45;&gt;7</title>
<path fill="none" stroke="black" d="M643.43,-290.33C640.42,-290.92 637.44,-291.47 634.5,-292 601.02,-297.99 508.16,-287.68 482.5,-310 413.85,-369.71 442.15,-417.76 430.5,-508 413.36,-640.77 480.85,-690.89 595.5,-760 603.47,-764.8 612.06,-769.36 620.75,-773.59"/>
<polygon fill="black" stroke="black" points="619.28,-776.77 629.82,-777.88 622.27,-770.44 619.28,-776.77"/>
<text text-anchor="middle" x="443" y="-531.3" font-family="Courier,monospace" font-size="14.00">&#39;(&#39;</text>
</g>
<!-- 19 -->
<g id="node26" class="node">
<title>19</title>
<polygon fill="none" stroke="black" points="1076.5,-187 878.5,-187 878.5,-73 1076.5,-73 1076.5,-187"/>
<text text-anchor="middle" x="977.5" y="-171.8" font-family="Courier,monospace" font-size="14.00">Estado 19</text>
<text text-anchor="start" x="886.5" y="-140.8" font-family="Courier,monospace" font-size="14.00"> &#160;7 exp: exp • &#39;+&#39; exp</text>
<text text-anchor="start" x="886.5" y="-125.8" font-family="Courier,monospace" font-size="14.00"> &#160;8 &#160;&#160;&#160;| exp • &#39;&#45;&#39; exp</text>
<text text-anchor="start" x="886.5" y="-110.8" font-family="Courier,monospace" font-size="14.00"> &#160;9 &#160;&#160;&#160;| exp • &#39;*&#39; exp</text>
<text text-anchor="start" x="886.5" y="-95.8" font-family="Courier,monospace" font-size="14.00"> &#160;9 &#160;&#160;&#160;| exp &#39;*&#39; exp •</text>
<text text-anchor="start" x="886.5" y="-80.8" font-family="Courier,monospace" font-size="14.00"> 10 &#160;&#160;&#160;| exp • &#39;/&#39; exp</text>
</g>
<!-- 13&#45;&gt;19 -->
<g id="edge37" class="edge">
<title>13&#45;&gt;19</title>
<path fill="none" stroke="black" stroke-dasharray="5,2" d="M788.65,-237.88C811.91,-224.72 841.17,-208.16 869.67,-192.03"/>
<polygon fill="black" stroke="black" points="871.5,-195.01 878.48,-187.04 868.05,-188.92 871.5,-195.01"/>
<text text-anchor="middle" x="859" y="-208.8" font-family="Courier,monospace" font-size="14.00">exp</text>
</g>
<!-- 14&#45;&gt;5 -->
<g id="edge38" class="edge">
<title>14&#45;&gt;5</title>
<path fill="none" stroke="black" d="M1099.37,-239.96C1096.38,-239.29 1093.42,-238.64 1090.5,-238 929.89,-202.95 741.52,-167.21 633.28,-147.19"/>
<polygon fill="black" stroke="black" points="633.85,-143.74 623.38,-145.36 632.58,-150.62 633.85,-143.74"/>
<text text-anchor="middle" x="1025.5" y="-208.8" font-family="Courier,monospace" font-size="14.00">NUMBER</text>
</g>
<!-- 14&#45;&gt;7 -->
<g id="edge39" class="edge">
<title>14&#45;&gt;7</title>
<path fill="none" stroke="black" d="M1297.66,-279.21C1415.24,-297.71 1595.5,-336.31 1595.5,-399 1595.5,-671 1595.5,-671 1595.5,-671 1595.5,-755.29 927.89,-765.71 844.5,-778 832.26,-779.8 819.47,-781.84 806.77,-783.96"/>
<polygon fill="black" stroke="black" points="805.89,-780.55 796.61,-785.67 807.05,-787.46 805.89,-780.55"/>
<text text-anchor="middle" x="1608" y="-531.3" font-family="Courier,monospace" font-size="14.00">&#39;(&#39;</text>
</g>
<!-- 20 -->
<g id="node27" class="node">
<title>20</title>
<polygon fill="none" stroke="black" points="1297.5,-187 1099.5,-187 1099.5,-73 1297.5,-73 1297.5,-187"/>
<text text-anchor="middle" x="1198.5" y="-171.8" font-family="Courier,monospace" font-size="14.00">Estado 20</text>
<text text-anchor="start" x="1107.5" y="-140.8" font-family="Courier,monospace" font-size="14.00"> &#160;7 exp: exp • &#39;+&#39; exp</text>
<text text-anchor="start" x="1107.5" y="-125.8" font-family="Courier,monospace" font-size="14.00"> &#160;8 &#160;&#160;&#160;| exp • &#39;&#45;&#39; exp</text>
<text text-anchor="start" x="1107.5" y="-110.8" font-family="Courier,monospace" font-size="14.00"> &#160;9 &#160;&#160;&#160;| exp • &#39;*&#39; exp</text>
<text text-anchor="start" x="1107.5" y="-95.8" font-family="Courier,monospace" font-size="14.00"> 10 &#160;&#160;&#160;| exp • &#39;/&#39; exp</text>
<text text-anchor="start" x="1107.5" y="-80.8" font-family="Courier,monospace" font-size="14.00"> 10 &#160;&#160;&#160;| exp &#39;/&#39; exp •</text>
</g>
<!-- 14&#45;&gt;20 -->
<g id="edge40" class="edge">
<title>14&#45;&gt;20</title>
<path fill="none" stroke="black" stroke-dasharray="5,2" d="M1198.5,-237.72C1198.5,-226.09 1198.5,-211.82 1198.5,-197.55"/>
<polygon fill="black" stroke="black" points="1202,-197.2 1198.5,-187.2 1195,-197.2 1202,-197.2"/>
<text text-anchor="middle" x="1211" y="-208.8" font-family="Courier,monospace" font-size="14.00">exp</text>
</g>
<!-- 15R4 -->
<g id="node28" class="node">
<title>15R4</title>
<polygon fill="#b2df8a" stroke="black" points="1414.5,-418 1384.33,-400 1414.5,-382 1444.67,-400 1414.5,-418"/>
<text text-anchor="middle" x="1414.5" y="-396.3" font-family="Courier,monospace" font-size="14.00">R4</text>
</g>
<!-- 15&#45;&gt;15R4 -->
<g id="edge41" class="edge">
<title>15&#45;&gt;15R4</title>
<path fill="none" stroke="black" d="M1414.5,-507.72C1414.5,-484.85 1414.5,-451.81 1414.5,-428.56"/>
<polygon fill="black" stroke="black" points="1418,-428.33 1414.5,-418.33 1411,-428.33 1418,-428.33"/>
</g>
<!-- 16R11 -->
<g id="node29" class="node">
<title>16R11</title>
<polygon fill="#b2df8a" stroke="black" points="817.5,-418 779.63,-400 817.5,-382 855.37,-400 817.5,-418"/>
<text text-anchor="middle" x="817.5" y="-396.3" font-family="Courier,monospace" font-size="14.00">R11</text>
</g>
<!-- 16&#45;&gt;16R11 -->
<g id="edge42" class="edge">
<title>16&#45;&gt;16R11</title>
<path fill="none" stroke="black" d="M817.5,-507.72C817.5,-484.85 817.5,-451.81 817.5,-428.56"/>
<polygon fill="black" stroke="black" points="821,-428.33 817.5,-418.33 814,-428.33 821,-428.33"/>
</g>
<!-- 17&#45;&gt;13 -->
<g id="edge43" class="edge">
<title>17&#45;&gt;13</title>
<path fill="none" stroke="black" d="M659.92,-342.94C670.92,-331.9 682.49,-320.49 693.5,-310 697.28,-306.39 701.28,-302.67 705.29,-299"/>
<polygon fill="black" stroke="black" points="707.92,-301.33 712.96,-292.01 703.21,-296.15 707.92,-301.33"/>
<text text-anchor="middle" x="706" y="-313.8" font-family="Courier,monospace" font-size="14.00">&#39;*&#39;</text>
</g>
<!-- 17&#45;&gt;14 -->
<g id="edge44" class="edge">
<title>17&#45;&gt;14</title>
<path fill="none" stroke="black" d="M704.62,-355.08C747.17,-338.12 797.95,-320.34 845.5,-310 949.06,-287.47 980.77,-307.58 1089.41,-292.01"/>
<polygon fill="black" stroke="black" points="1090.09,-295.45 1099.46,-290.51 1089.05,-288.53 1090.09,-295.45"/>
<text text-anchor="middle" x="858" y="-313.8" font-family="Courier,monospace" font-size="14.00">&#39;/&#39;</text>
</g>
<!-- 17R7 -->
<g id="node30" class="node">
<title>17R7</title>
<polygon fill="#b2df8a" stroke="black" points="595.5,-283 565.33,-265 595.5,-247 625.67,-265 595.5,-283"/>
<text text-anchor="middle" x="595.5" y="-261.3" font-family="Courier,monospace" font-size="14.00">R7</text>
</g>
<!-- 17&#45;&gt;17R7 -->
<g id="edge45" class="edge">
<title>17&#45;&gt;17R7</title>
<path fill="none" stroke="black" d="M601.29,-342.98C599.98,-325.56 598.59,-307.15 597.51,-292.7"/>
<polygon fill="black" stroke="black" points="600.98,-292.22 596.74,-282.51 594,-292.75 600.98,-292.22"/>
</g>
<!-- 18&#45;&gt;13 -->
<g id="edge46" class="edge">
<title>18&#45;&gt;13</title>
<path fill="none" stroke="black" d="M972.08,-360.28C947.32,-349.67 921.11,-337.59 897.5,-325 886.73,-319.26 885.49,-315.31 874.5,-310 863.79,-304.83 852.32,-300.02 840.78,-295.63"/>
<polygon fill="black" stroke="black" points="841.68,-292.23 831.08,-292.03 839.25,-298.79 841.68,-292.23"/>
<text text-anchor="middle" x="910" y="-313.8" font-family="Courier,monospace" font-size="14.00">&#39;*&#39;</text>
</g>
<!-- 18&#45;&gt;14 -->
<g id="edge47" class="edge">
<title>18&#45;&gt;14</title>
<path fill="none" stroke="black" d="M1124.99,-342.98C1139.04,-328.26 1153.77,-312.84 1166.32,-299.7"/>
<polygon fill="black" stroke="black" points="1169.06,-301.9 1173.43,-292.25 1164,-297.07 1169.06,-301.9"/>
<text text-anchor="middle" x="1166" y="-313.8" font-family="Courier,monospace" font-size="14.00">&#39;/&#39;</text>
</g>
<!-- 18R8 -->
<g id="node31" class="node">
<title>18R8</title>
<polygon fill="#b2df8a" stroke="black" points="1051.5,-283 1021.33,-265 1051.5,-247 1081.67,-265 1051.5,-283"/>
<text text-anchor="middle" x="1051.5" y="-261.3" font-family="Courier,monospace" font-size="14.00">R8</text>
</g>
<!-- 18&#45;&gt;18R8 -->
<g id="edge48" class="edge">
<title>18&#45;&gt;18R8</title>
<path fill="none" stroke="black" d="M1063.08,-342.98C1060.4,-325.22 1057.58,-306.43 1055.39,-291.86"/>
<polygon fill="black" stroke="black" points="1058.8,-291 1053.85,-281.63 1051.88,-292.04 1058.8,-291"/>
</g>
<!-- 19R9 -->
<g id="node32" class="node">
<title>19R9</title>
<polygon fill="#b2df8a" stroke="black" points="977.5,-36 947.33,-18 977.5,0 1007.67,-18 977.5,-36"/>
<text text-anchor="middle" x="977.5" y="-14.3" font-family="Courier,monospace" font-size="14.00">R9</text>
</g>
<!-- 19&#45;&gt;19R9 -->
<g id="edge49" class="edge">
<title>19&#45;&gt;19R9</title>
<path fill="none" stroke="black" d="M977.5,-72.71C977.5,-63.55 977.5,-54.44 977.5,-46.4"/>
<polygon fill="black" stroke="black" points="981,-46.18 977.5,-36.18 974,-46.18 981,-46.18"/>
</g>
<!-- 20R10 -->
<g id="node33" class="node">
<title>20R10</title>
<polygon fill="#b2df8a" stroke="black" points="1198.5,-36 1160.63,-18 1198.5,0 1236.37,-18 1198.5,-36"/>
<text text-anchor="middle" x="1198.5" y="-14.3" font-family="Courier,monospace" font-size="14.00">R10</text>
</g>
<!-- 20&#45;&gt;20R10 -->
<g id="edge50" class="edge">
<title>20&#45;&gt;20R10</title>
<path fill="none" stroke="black" d="M1198.5,-72.71C1198.5,-63.55 1198.5,-54.44 1198.5,-46.4"/>
<polygon fill="black" stroke="black" points="1202,-46.18 1198.5,-36.18 1195,-46.18 1202,-46.18"/>
</g>
</g>
</svg>
